<svg xmlns="http://www.w3.org/2000/svg" viewBox="0 0 640 640" width="640" height="640" role="img" aria-label="ХВ"><g fill="none" stroke="#DED0BD" stroke-width="18" stroke-linecap="round" stroke-linejoin="round"><path d="M73 319 C91 250 224 128 319 110 C335 107 348 112 352 127 C356 151 345 224 345 312 C345 394 367 444 415 439 C457 435 498 397 528 356"/><path d="M89 430 C174 300 298 165 450 62 C497 30 545 11 585 4"/><path d="M350 318 C370 260 492 221 574 226 C628 229 654 261 644 304 C630 365 527 413 409 455 C505 439 582 454 604 493 C625 532 574 586 478 613 C380 640 260 633 203 599 C161 574 171 535 226 508 C269 487 329 478 397 482"/><path d="M501 348 C448 402 389 484 354 570"/></g></svg>
