<svg xmlns="http://www.w3.org/2000/svg" width="1200" height="630" viewBox="0 0 1200 630">
  <defs>
    <linearGradient id="paper" x1="0" y1="0" x2="1" y2="1">
      <stop offset="0" stop-color="#fffaf2"/>
      <stop offset="1" stop-color="#efe2d2"/>
    </linearGradient>
    <radialGradient id="sun" cx="85%" cy="10%" r="70%">
      <stop offset="0" stop-color="#d7b982" stop-opacity=".32"/>
      <stop offset="1" stop-color="#d7b982" stop-opacity="0"/>
    </radialGradient>
    <filter id="shadow" x="-20%" y="-20%" width="140%" height="140%">
      <feDropShadow dx="0" dy="16" stdDeviation="22" flood-color="#5b412b" flood-opacity=".16"/>
    </filter>
  </defs>
  <rect width="1200" height="630" fill="url(#paper)"/>
  <rect width="1200" height="630" fill="url(#sun)"/>
  <g opacity=".56" fill="none" stroke="#b9905e" stroke-width="3">
    <circle cx="86" cy="95" r="23"/><path d="M86 49v23M86 118v23M40 95h23M109 95h23M53 62l16 16M103 112l16 16M53 128l16-16M103 78l16-16"/>
    <circle cx="1110" cy="530" r="27"/><path d="M1110 477v26M1110 557v26M1057 530h26M1137 530h26M1073 493l19 19M1128 548l19 19M1073 567l19-19M1128 512l19-19"/>
  </g>
  <g filter="url(#shadow)">
    <rect x="126" y="74" width="948" height="482" rx="54" fill="#fffaf2" fill-opacity=".85"/>
  </g>
  <text x="600" y="146" text-anchor="middle" fill="#9c7750" font-family="Arial, sans-serif" font-size="20" font-weight="700" letter-spacing="6">ПРИГЛАШЕНИЕ НА СВАДЬБУ</text>
  <text x="600" y="271" text-anchor="middle" fill="#6f5337" font-family="Georgia, serif" font-size="104">Христина</text>
  <text x="600" y="323" text-anchor="middle" fill="#bd935d" font-family="Georgia, serif" font-size="50" font-style="italic">и</text>
  <text x="600" y="420" text-anchor="middle" fill="#6f5337" font-family="Georgia, serif" font-size="104">Владимир</text>
  <line x1="440" y1="459" x2="760" y2="459" stroke="#bd935d" stroke-opacity=".45"/>
  <text x="600" y="506" text-anchor="middle" fill="#6f5337" font-family="Georgia, serif" font-size="34">25 июля 2026 • Ермо-Николаевка</text>
</svg>
