<svg xmlns="http://www.w3.org/2000/svg" viewBox="0 0 320 210" fill="none" stroke="#182218" stroke-width="7.5" stroke-linecap="round" stroke-linejoin="round">
  <title>Монограмма ХВ</title>
  <path d="M68 166 C101 119 128 73 160 32" />
  <path d="M71 42 C108 78 132 116 158 166" />
  <path d="M54 80 C75 64 101 66 120 84" />
  <path d="M176 166 C167 126 167 72 181 36 C217 21 254 42 239 73 C229 95 201 98 178 93 C219 88 265 109 250 141 C238 169 202 178 176 166" />
  <path d="M184 35 C171 55 168 84 178 94" />
</svg>
