<svg xmlns="http://www.w3.org/2000/svg" viewBox="0 0 64 64" fill="none" stroke="#DED0BD" stroke-width="2.4" stroke-linecap="round" stroke-linejoin="round">
  <title>Иконка свадебных колец</title>
  <path d="M22.5 27.5 L28.5 19.5 L34.5 27.5" />
  <path d="M29.5 19.5 H42.5 L48.5 27.5" />
  <path d="M23 28 C13.5 28 6.5 35.4 6.5 44 C6.5 53.1 13.9 60 23 60 C31.6 60 38.8 53.6 39.5 45.2" />
  <path d="M41 28 C50.2 28.4 57.5 35.7 57.5 44.6 C57.5 53.6 50.1 60 41 60 C32 60 24.5 52.8 24.5 44 C24.5 35.2 32 28 41 28 Z" />
  <path d="M23 35.5 C18.2 35.5 14 39.2 14 44 C14 48.9 18.1 52.5 23 52.5" />
  <path d="M41 35.5 C36.1 35.5 32 39.3 32 44.2 C32 49.1 36.1 52.8 41 52.8 C45.8 52.8 50 49 50 44.2 C50 39.3 45.8 35.5 41 35.5 Z" />
</svg>
